<svg width="49" height="48" viewBox="0 0 49 48" fill="none" xmlns="http://www.w3.org/2000/svg">
<path d="M36.851 11.95C35.11 10.05 32.779 9 30.308 9C28.167 9 26.136 9.78 24.505 11.23C22.875 9.78 20.844 9 18.703 9C16.232 9 13.9 10.05 12.16 11.95C9.46799 14.9 8.77799 19.31 10.279 23H16.962L20.674 17.45C20.894 17.12 21.274 16.95 21.664 17.01C22.054 17.08 22.364 17.36 22.464 17.74L24.895 26.62L27.676 22.45C27.856 22.17 28.176 22 28.506 22H33.508C34.058 22 34.508 22.45 34.508 23C34.508 23.55 34.058 24 33.508 24H29.046L25.334 29.55C25.144 29.84 24.834 30 24.504 30C24.454 30 24.394 30 24.344 29.99C23.954 29.92 23.644 29.64 23.544 29.26L21.113 20.38L18.332 24.55C18.152 24.83 17.832 25 17.502 25H11.459L23.765 38.67C23.955 38.88 24.215 39 24.505 39C24.785 39 25.055 38.88 25.245 38.67L36.85 25.99C40.383 22.12 40.383 15.82 36.851 11.95Z" fill="#232F3E"/>
</svg>
