<svg width="32" height="32" viewBox="0 0 32 32" fill="none" xmlns="http://www.w3.org/2000/svg">
<path d="M2.66667 24.0067C2.66667 24.74 3.26133 25.3333 3.99333 25.3333H14.6733C15.0252 25.3333 15.3626 25.1936 15.6114 24.9448C15.8602 24.696 16 24.3585 16 24.0067C16 23.6548 15.8602 23.3174 15.6114 23.0686C15.3626 22.8198 15.0252 22.68 14.6733 22.68H3.99333C3.26 22.68 2.66667 23.2733 2.66667 24.0067Z" fill="white"/>
<path d="M2.66665 16C2.66665 16.7333 3.26131 17.3267 3.99331 17.3267H28.0066C28.3585 17.3267 28.6959 17.1869 28.9447 16.9381C29.1935 16.6893 29.3333 16.3519 29.3333 16C29.3333 15.6482 29.1935 15.3107 28.9447 15.0619C28.6959 14.8131 28.3585 14.6733 28.0066 14.6733H3.99331C3.25998 14.6733 2.66665 15.268 2.66665 16Z" fill="white"/>
<path d="M3.99331 9.31999C3.64146 9.31999 3.30402 9.18022 3.05522 8.93142C2.80642 8.68262 2.66665 8.34518 2.66665 7.99332C2.66665 7.64147 2.80642 7.30403 3.05522 7.05523C3.30402 6.80643 3.64146 6.66666 3.99331 6.66666H20.0066C20.1809 6.66666 20.3534 6.70097 20.5143 6.76764C20.6753 6.83431 20.8215 6.93204 20.9447 7.05523C21.0679 7.17842 21.1657 7.32467 21.2323 7.48563C21.299 7.64659 21.3333 7.8191 21.3333 7.99332C21.3333 8.16754 21.299 8.34006 21.2323 8.50102C21.1657 8.66198 21.0679 8.80823 20.9447 8.93142C20.8215 9.05461 20.6753 9.15233 20.5143 9.219C20.3534 9.28568 20.1809 9.31999 20.0066 9.31999H3.99331Z" fill="white"/>
</svg>
